<svg width="323" height="69" viewBox="0 0 323 69" fill="none" xmlns="http://www.w3.org/2000/svg">
<g filter="url(#filter0_di_329_24)">
<path d="M18.9642 9.04866C20.0627 8.94637 21.0213 9.00539 21.8402 9.22541C23.8213 9.71235 24.5993 10.971 24.1732 13.0018C24.2511 12.9483 24.2396 12.9887 24.139 13.1229L23.8148 14.161L23.4945 14.7391C23.3264 14.9631 22.9671 16.1982 22.4173 18.4442C21.9167 20.0697 21.3882 21.6818 20.8323 23.2801C19.9573 26.0099 19.4444 27.7526 19.2943 28.5076C20.6438 27.516 22.1466 26.1702 23.8011 24.4696C26.9418 21.2925 28.9749 19.3644 29.9007 18.6854C30.826 18.0067 31.4727 17.5737 31.8402 17.3865C32.2519 17.1908 32.6689 17.0897 33.0902 17.0828C33.5008 17.04 33.9503 17.0459 34.4378 17.1024L36.2659 17.3143C37.4186 17.3922 38.3095 18.3238 38.9388 20.1082C39.5127 21.8651 39.4685 23.2859 38.806 24.3709C36.0386 29.4212 32.3385 33.1672 27.7064 35.6082C26.292 36.3836 24.8114 37.0962 23.265 37.7449C25.6843 37.4966 28.3061 38.3145 31.1302 40.2C33.4249 41.7321 35.2473 43.4148 36.597 45.2479C37.9911 47.0722 39.0562 48.427 39.7923 49.3123C40.5176 50.1616 40.9115 50.8479 40.9739 51.3699C41.0914 51.919 40.8324 52.3896 40.1976 52.7821C39.6176 53.2019 38.5431 53.7005 36.9749 54.2772C36.2519 54.5341 34.4811 54.1206 31.6624 53.036C30.4353 52.5529 29.1246 52.0286 27.7318 51.4637C26.3282 50.8628 24.9408 50.3159 23.5697 49.8231C20.3961 48.6553 18.2649 48.1408 17.1771 48.2791C17.0881 48.2966 16.8994 48.2956 16.6116 48.2762L16.1419 50.9451C15.8766 52.257 15.6105 53.6454 15.3441 55.1102C15.1112 56.5302 14.7072 57.8507 14.1322 59.0711C12.9819 60.0997 11.4744 60.722 9.60969 60.9373C7.46765 61.1692 5.88471 60.7567 4.86164 59.699C4.08235 58.6696 3.83238 55.2451 4.11067 49.4266C4.25339 45.3522 4.35876 41.7809 4.42707 38.7137C4.49539 35.6465 4.58148 33.1098 4.68586 31.1043C4.77942 29.063 4.82503 27.4891 4.82258 26.3826C4.82193 26.3269 4.82122 26.2712 4.82063 26.2156L9.39973 24.1248C8.79626 27.0512 8.1685 31.8645 8.0677 32.2342C7.96763 32.6019 12.4905 29.7099 14.765 28.2176L14.265 40.8289L17.4085 23.9393L9.37629 30.6795L15.4417 18.1922L6.72981 24.1864L12.0667 10.6531C12.3593 10.5284 12.7096 10.3973 13.1165 10.2596C13.9281 9.98496 14.8449 9.74734 15.8665 9.54573C16.8775 9.30805 17.91 9.14219 18.9642 9.04866ZM4.81282 24.9783C4.81031 24.3277 4.81086 23.6893 4.81575 23.0633C4.86847 20.5718 5.16213 18.414 5.69758 16.5906C6.04453 14.7665 7.06579 13.935 8.76106 14.0965C8.96753 13.2161 9.19365 12.6368 9.43977 12.3592C9.73033 12.0728 10.0377 11.8412 10.3607 11.6629C10.6728 11.4486 11.007 11.2297 11.3636 11.0067C11.5104 10.9148 11.6972 10.8211 11.9212 10.7205L4.81282 24.9783Z" fill="#304FE8"/>
</g>
<path d="M49.5722 55C49.1138 55 48.8847 54.7708 48.8847 54.3125V19.03C48.8847 18.5717 49.1138 18.3425 49.5722 18.3425H58.9772C59.4355 18.3425 59.6647 18.5717 59.6647 19.03V30.91H60.9297L62.7172 24.035L63.9547 18.7C63.9913 18.5533 64.0922 18.4617 64.2572 18.425C64.4405 18.37 64.633 18.3425 64.8347 18.3425H73.7172C74.1755 18.3425 74.4047 18.5717 74.4047 19.03V25.0525C74.4047 25.2358 74.368 25.4008 74.2947 25.5475C74.2213 25.6942 74.1572 25.8408 74.1022 25.9875L70.3072 34.6775L69.3172 36.52L70.3072 38.4175L74.7897 47.6025C74.8813 47.7492 74.9363 47.905 74.9547 48.07C74.9913 48.2167 75.0097 48.4092 75.0097 48.6475V54.3125C75.0097 54.7708 74.7805 55 74.3222 55H65.2747C65.128 55 64.963 54.9725 64.7797 54.9175C64.6147 54.8625 64.5047 54.7525 64.4497 54.5875L62.6622 48.4275L61.0672 43.5875H59.6647V54.3125C59.6647 54.7708 59.4355 55 58.9772 55H49.5722ZM85.2496 55C84.8279 55 84.4612 54.8442 84.1496 54.5325L78.6496 49.0325C78.3562 48.7392 78.2096 48.3725 78.2096 47.9325V31.8175C78.2096 31.3775 78.3562 31.0108 78.6496 30.7175L84.1496 25.2175C84.4612 24.9058 84.8279 24.75 85.2496 24.75H93.6096C94.0312 24.75 94.3979 24.9058 94.7096 25.2175L100.21 30.7175C100.503 31.0108 100.65 31.3775 100.65 31.8175V47.9325C100.65 48.3725 100.503 48.7392 100.21 49.0325L94.7096 54.5325C94.3979 54.8442 94.0312 55 93.6096 55H85.2496ZM89.0996 46.64H89.7046C90.1446 46.64 90.4654 46.5392 90.6671 46.3375C90.8687 46.1175 90.9696 45.7875 90.9696 45.3475V34.4025C90.9696 33.9625 90.8687 33.6417 90.6671 33.44C90.4654 33.22 90.1446 33.11 89.7046 33.11H89.0996C88.6596 33.11 88.3387 33.22 88.1371 33.44C87.9537 33.6417 87.8621 33.9625 87.8621 34.4025V45.3475C87.8621 45.7875 87.9629 46.1175 88.1646 46.3375C88.3662 46.5392 88.6779 46.64 89.0996 46.64ZM111.138 55C110.717 55 110.35 54.8442 110.038 54.5325L104.538 49.0325C104.245 48.7392 104.098 48.3725 104.098 47.9325V31.8175C104.098 31.3775 104.245 31.0108 104.538 30.7175L110.038 25.2175C110.35 24.9058 110.717 24.75 111.138 24.75H125.851C126.309 24.75 126.538 24.9792 126.538 25.4375V54.3125C126.538 54.7708 126.309 55 125.851 55H119.306C119.049 55 118.838 54.9633 118.673 54.89C118.527 54.7983 118.38 54.6792 118.233 54.5325L116.858 53.1575L115.483 54.5325C115.19 54.8442 114.823 55 114.383 55H111.138ZM114.988 46.64H115.648C116.07 46.64 116.372 46.5392 116.556 46.3375C116.757 46.1175 116.858 45.7875 116.858 45.3475V33.11H115.043C114.603 33.11 114.273 33.22 114.053 33.44C113.852 33.6417 113.751 33.9625 113.751 34.4025V45.3475C113.751 45.7875 113.852 46.1175 114.053 46.3375C114.255 46.5392 114.567 46.64 114.988 46.64ZM130.729 55C130.271 55 130.042 54.7708 130.042 54.3125V25.4375C130.042 24.9792 130.271 24.75 130.729 24.75H145.442C145.864 24.75 146.23 24.9058 146.542 25.2175L152.042 30.7175C152.335 31.0108 152.482 31.3775 152.482 31.8175V54.3125C152.482 54.7708 152.253 55 151.794 55H143.517C143.059 55 142.829 54.7708 142.829 54.3125V35.0625C142.829 34.2925 142.426 33.9075 141.619 33.9075H139.722V54.3125C139.722 54.7708 139.493 55 139.034 55H130.729ZM156.672 63.25C156.213 63.25 155.984 63.0208 155.984 62.5625V25.4375C155.984 24.9792 156.213 24.75 156.672 24.75H163.354C163.684 24.75 163.996 24.9058 164.289 25.2175L165.664 26.5925L167.039 25.2175C167.333 24.9058 167.699 24.75 168.139 24.75H171.384C171.806 24.75 172.173 24.9058 172.484 25.2175L177.984 30.7175C178.278 31.0108 178.424 31.3775 178.424 31.8175V47.9325C178.424 48.3725 178.278 48.7392 177.984 49.0325L172.484 54.5325C172.173 54.8442 171.806 55 171.384 55H168.139C167.699 55 167.333 54.8442 167.039 54.5325L165.664 53.1575V62.5625C165.664 63.0208 165.435 63.25 164.977 63.25H156.672ZM165.664 46.64H167.479C167.919 46.64 168.24 46.5392 168.442 46.3375C168.662 46.1175 168.772 45.7875 168.772 45.3475V34.4025C168.772 33.9625 168.671 33.6417 168.469 33.44C168.268 33.22 167.956 33.11 167.534 33.11H166.874C166.453 33.11 166.141 33.22 165.939 33.44C165.756 33.6417 165.664 33.9625 165.664 34.4025V46.64ZM182.614 55C182.156 55 181.927 54.7708 181.927 54.3125V25.4375C181.927 24.9792 182.156 24.75 182.614 24.75H188.857C189.168 24.75 189.471 24.9058 189.764 25.2175L191.497 27.0875L193.504 25.08C193.742 24.86 194.027 24.75 194.357 24.75H196.694C197.152 24.75 197.382 24.9792 197.382 25.4375V33.77C197.382 34.0633 197.354 34.265 197.299 34.375C197.262 34.4667 197.162 34.5675 196.997 34.6775L191.607 38.4725V54.3125C191.607 54.7708 191.377 55 190.919 55H182.614ZM206.314 55C205.892 55 205.526 54.8442 205.214 54.5325L199.714 49.0325C199.421 48.7392 199.274 48.3725 199.274 47.9325V31.8175C199.274 31.3775 199.421 31.0108 199.714 30.7175L205.214 25.2175C205.526 24.9058 205.892 24.75 206.314 24.75H214.674C215.096 24.75 215.462 24.9058 215.774 25.2175L221.274 30.7175C221.567 31.0108 221.714 31.3775 221.714 31.8175V47.9325C221.714 48.3725 221.567 48.7392 221.274 49.0325L215.774 54.5325C215.462 54.8442 215.096 55 214.674 55H206.314ZM210.164 46.64H210.769C211.209 46.64 211.53 46.5392 211.732 46.3375C211.933 46.1175 212.034 45.7875 212.034 45.3475V34.4025C212.034 33.9625 211.933 33.6417 211.732 33.44C211.53 33.22 211.209 33.11 210.769 33.11H210.164C209.724 33.11 209.403 33.22 209.202 33.44C209.018 33.6417 208.927 33.9625 208.927 34.4025V45.3475C208.927 45.7875 209.027 46.1175 209.229 46.3375C209.431 46.5392 209.742 46.64 210.164 46.64ZM232.285 55C231.864 55 231.497 54.8442 231.185 54.5325L226.593 49.9675C226.299 49.6558 226.153 49.2892 226.153 48.8675V33.11H224.998C224.539 33.11 224.31 32.8808 224.31 32.4225V25.4375C224.31 24.9792 224.539 24.75 224.998 24.75H226.153V21.3125C226.153 20.8542 226.382 20.625 226.84 20.625H235.118C235.576 20.625 235.805 20.8542 235.805 21.3125V24.75H238.473C238.931 24.75 239.16 24.9792 239.16 25.4375V32.4225C239.16 32.8808 238.931 33.11 238.473 33.11H235.805V45.1825C235.805 45.5308 235.915 45.8242 236.135 46.0625L238.83 48.7575C239.014 48.9408 239.105 49.2158 239.105 49.5825V54.3125C239.105 54.7708 238.876 55 238.418 55H232.285ZM248.799 55C248.378 55 248.011 54.8442 247.699 54.5325L242.199 49.0325C241.906 48.7392 241.759 48.3725 241.759 47.9325V31.8175C241.759 31.3775 241.906 31.0108 242.199 30.7175L247.699 25.2175C248.011 24.9058 248.378 24.75 248.799 24.75H257.159C257.581 24.75 257.948 24.9058 258.259 25.2175L263.759 30.7175C264.053 31.0108 264.199 31.3775 264.199 31.8175V47.9325C264.199 48.3725 264.053 48.7392 263.759 49.0325L258.259 54.5325C257.948 54.8442 257.581 55 257.159 55H248.799ZM252.649 46.64H253.254C253.694 46.64 254.015 46.5392 254.217 46.3375C254.419 46.1175 254.519 45.7875 254.519 45.3475V34.4025C254.519 33.9625 254.419 33.6417 254.217 33.44C254.015 33.22 253.694 33.11 253.254 33.11H252.649C252.209 33.11 251.889 33.22 251.687 33.44C251.504 33.6417 251.412 33.9625 251.412 34.4025V45.3475C251.412 45.7875 251.513 46.1175 251.714 46.3375C251.916 46.5392 252.228 46.64 252.649 46.64ZM275.953 55C275.495 55 275.128 54.8808 274.853 54.6425L271.333 51.535L268.088 47.7675C267.905 47.5475 267.786 47.3825 267.731 47.2725C267.676 47.1625 267.648 46.9608 267.648 46.6675V33.0825C267.648 32.7708 267.676 32.5692 267.731 32.4775C267.786 32.3675 267.905 32.2025 268.088 31.9825L271.223 28.2975L274.853 25.1075C275 24.9792 275.156 24.8875 275.321 24.8325C275.486 24.7775 275.696 24.75 275.953 24.75H281.893C282.351 24.75 282.581 24.9792 282.581 25.4375V32.2025C282.581 32.3492 282.562 32.4958 282.526 32.6425C282.507 32.7892 282.416 32.9267 282.251 33.055L279.748 35.09L277.521 37.565V42.1575L279.666 44.4125L282.251 46.695C282.416 46.8417 282.507 46.9883 282.526 47.135C282.562 47.2633 282.581 47.4008 282.581 47.5475V54.3125C282.581 54.7708 282.351 55 281.893 55H275.953ZM292.789 55C292.367 55 292 54.8442 291.689 54.5325L286.189 49.0325C285.895 48.7392 285.749 48.3725 285.749 47.9325V31.8175C285.749 31.3775 285.895 31.0108 286.189 30.7175L291.689 25.2175C292 24.9058 292.367 24.75 292.789 24.75H301.149C301.57 24.75 301.937 24.9058 302.249 25.2175L307.749 30.7175C308.042 31.0108 308.189 31.3775 308.189 31.8175V47.9325C308.189 48.3725 308.042 48.7392 307.749 49.0325L302.249 54.5325C301.937 54.8442 301.57 55 301.149 55H292.789ZM296.639 46.64H297.244C297.684 46.64 298.004 46.5392 298.206 46.3375C298.408 46.1175 298.509 45.7875 298.509 45.3475V34.4025C298.509 33.9625 298.408 33.6417 298.206 33.44C298.004 33.22 297.684 33.11 297.244 33.11H296.639C296.199 33.11 295.878 33.22 295.676 33.44C295.493 33.6417 295.401 33.9625 295.401 34.4025V45.3475C295.401 45.7875 295.502 46.1175 295.704 46.3375C295.905 46.5392 296.217 46.64 296.639 46.64ZM312.27 55C311.811 55 311.582 54.7708 311.582 54.3125V19.03C311.582 18.5717 311.811 18.3425 312.27 18.3425H320.575C321.033 18.3425 321.262 18.5717 321.262 19.03V54.3125C321.262 54.7708 321.033 55 320.575 55H312.27Z" fill="white"/>
<defs>
<filter id="filter0_di_329_24" x="0.000732422" y="1" width="45.0007" height="64" filterUnits="userSpaceOnUse" color-interpolation-filters="sRGB">
<feFlood flood-opacity="0" result="BackgroundImageFix"/>
<feColorMatrix in="SourceAlpha" type="matrix" values="0 0 0 0 0 0 0 0 0 0 0 0 0 0 0 0 0 0 127 0" result="hardAlpha"/>
<feOffset dy="-4"/>
<feGaussianBlur stdDeviation="2"/>
<feComposite in2="hardAlpha" operator="out"/>
<feColorMatrix type="matrix" values="0 0 0 0 1 0 0 0 0 1 0 0 0 0 1 0 0 0 0.4 0"/>
<feBlend mode="normal" in2="BackgroundImageFix" result="effect1_dropShadow_329_24"/>
<feBlend mode="normal" in="SourceGraphic" in2="effect1_dropShadow_329_24" result="shape"/>
<feColorMatrix in="SourceAlpha" type="matrix" values="0 0 0 0 0 0 0 0 0 0 0 0 0 0 0 0 0 0 127 0" result="hardAlpha"/>
<feOffset dy="4"/>
<feGaussianBlur stdDeviation="2"/>
<feComposite in2="hardAlpha" operator="arithmetic" k2="-1" k3="1"/>
<feColorMatrix type="matrix" values="0 0 0 0 1 0 0 0 0 1 0 0 0 0 1 0 0 0 0.4 0"/>
<feBlend mode="normal" in2="shape" result="effect2_innerShadow_329_24"/>
</filter>
</defs>
</svg>
